<svg xmlns="http://www.w3.org/2000/svg" xmlns:xlink="http://www.w3.org/1999/xlink" style="margin:auto;display:block;z-index:1;position:relative" width="1366" height="695" preserveAspectRatio="xMidYMid" viewBox="0 0 1366 695">
<g transform="translate(683,347.5) scale(1,1) translate(-683,-347.5)"><path id="path0" d="M 789.5593215997559 545.934223489179
c 0 18.91628251868207 -4.628452105634974 5.433400297919318 -10.061852403554292 5.433400297919318
S 769.4356167926472 564.8505060078611 769.4356167926472 545.934223489179
s 4.628452105634974 -5.433400297919318 10.061852403554292 -5.433400297919318
S 789.5593215997559 527.0179409704969 789.5593215997559 545.934223489179
z" fill="none" stroke="none"></path>
<circle cx="0" cy="0" r="7.335973893967499" fill="#9df871" opacity="0.9">
  <animateMotion begin="-8.063009486165262s" dur="10s" repeatCount="indefinite">
    <mpath xlink:href="#path0"></mpath>
  </animateMotion>
</circle><path id="path1" d="M 90.05363715874059 384.7163530818519
c 0 26.816074589193917 -6.561379952675106 7.702489509662082 -14.263869462337189 7.702489509662082
S 61.52589823406621 411.5324276710458 61.52589823406621 384.7163530818519
s 6.561379952675106 -7.702489509662082 14.263869462337189 -7.702489509662082
S 90.05363715874059 357.90027849265795 90.05363715874059 384.7163530818519
z" fill="none" stroke="none"></path>
<circle cx="0" cy="0" r="7.533648794132393" fill="#ff708e" opacity="0.9">
  <animateMotion begin="-4.6278941099633375s" dur="10s" repeatCount="indefinite">
    <mpath xlink:href="#path1"></mpath>
  </animateMotion>
</circle><path id="path2" d="M 28.02416864720785 576.4109775460632
c 0 19.608226769308565 -4.797757613766989 5.632150242248206 -10.429907856015195 5.632150242248206
S 7.164352935177462 596.0192043153718 7.164352935177462 576.4109775460632
s 4.797757613766989 -5.632150242248206 10.429907856015195 -5.632150242248206
S 28.02416864720785 556.8027507767547 28.02416864720785 576.4109775460632
z" fill="none" stroke="none"></path>
<circle cx="0" cy="0" r="4.363512314823044" fill="#e0ff77" opacity="0.9">
  <animateMotion begin="-6.34517247532032s" dur="10s" repeatCount="indefinite">
    <mpath xlink:href="#path2"></mpath>
  </animateMotion>
</circle><path id="path3" d="M 1090.0394062469823 145.80029671501057
c 0 36.24278749341335 -8.867916088813905 10.410162365129368 -19.278078453943273 10.410162365129368
S 1051.483249339096 182.04308420842392 1051.483249339096 145.80029671501057
s 8.867916088813905 -10.410162365129368 19.278078453943273 -10.410162365129368
S 1090.0394062469823 109.55750922159723 1090.0394062469823 145.80029671501057
z" fill="none" stroke="none"></path>
<circle cx="0" cy="0" r="6.411580505087549" fill="#ff708e" opacity="0.9">
  <animateMotion begin="-2.94060553574806s" dur="10s" repeatCount="indefinite">
    <mpath xlink:href="#path3"></mpath>
  </animateMotion>
</circle><path id="path4" d="M 865.0139531097441 40.2555351112329
c 0 20.64041321375384 -5.050313871450407 5.928629327354827 -10.978943198805233 5.928629327354827
S 843.0560667121335 60.89594832498674 843.0560667121335 40.2555351112329
s 5.050313871450407 -5.928629327354827 10.978943198805233 -5.928629327354827
S 865.0139531097441 19.615121897479064 865.0139531097441 40.2555351112329
z" fill="none" stroke="none"></path>
<circle cx="0" cy="0" r="5.545620668364872" fill="#ff708e" opacity="0.9">
  <animateMotion begin="-8.650798135700587s" dur="10s" repeatCount="indefinite">
    <mpath xlink:href="#path4"></mpath>
  </animateMotion>
</circle><path id="path5" d="M 249.36721760311065 224.7104972094794
c 0 22.357496881002792 -5.470451364500683 6.421834210500802 -11.892285575001484 6.421834210500802
S 225.58264645310766 247.0679940904822 225.58264645310766 224.7104972094794
s 5.470451364500683 -6.421834210500802 11.892285575001484 -6.421834210500802
S 249.36721760311065 202.3530003284766 249.36721760311065 224.7104972094794
z" fill="none" stroke="none"></path>
<circle cx="0" cy="0" r="7.932894807176962" fill="#9df871" opacity="0.9">
  <animateMotion begin="-3.7794162097291673s" dur="10s" repeatCount="indefinite">
    <mpath xlink:href="#path5"></mpath>
  </animateMotion>
</circle><path id="path6" d="M 1127.84455417723 240.30428473908455
c 0 30.473114831707324 -7.456187671587962 8.752915962298912 -16.209103633886876 8.752915962298912
S 1095.4263469094565 270.7773995707919 1095.4263469094565 240.30428473908455
s 7.456187671587962 -8.752915962298912 16.209103633886876 -8.752915962298912
S 1127.84455417723 209.83116990737722 1127.84455417723 240.30428473908455
z" fill="none" stroke="none"></path>
<circle cx="0" cy="0" r="7.883686379950902" fill="#e0ff77" opacity="0.9">
  <animateMotion begin="-6.405509390068154s" dur="10s" repeatCount="indefinite">
    <mpath xlink:href="#path6"></mpath>
  </animateMotion>
</circle><path id="path7" d="M 1013.3855627923659 507.90532150294985
c 0 20.920652966152698 -5.1188831725692765 6.009123724320456 -11.128006896889733 6.009123724320456
S 991.1295489985865 528.8259744691026 991.1295489985865 507.90532150294985
s 5.1188831725692765 -6.009123724320456 11.128006896889733 -6.009123724320456
S 1013.3855627923659 486.98466853679713 1013.3855627923659 507.90532150294985
z" fill="none" stroke="none"></path>
<circle cx="0" cy="0" r="4.787621121529027" fill="#51cacc" opacity="0.9">
  <animateMotion begin="-8.254295386844468s" dur="10s" repeatCount="indefinite">
    <mpath xlink:href="#path7"></mpath>
  </animateMotion>
</circle><path id="path8" d="M 59.608110808716596 29.909452645257648
c 0 36.59237907656303 -8.953454454903719 10.51057696880002 -19.464031423703737 10.51057696880002
S 20.68004796130912 66.50183172182068 20.68004796130912 29.909452645257648
s 8.953454454903719 -10.51057696880002 19.464031423703737 -10.51057696880002
S 59.608110808716596 -6.682926431305379 59.608110808716596 29.909452645257648
z" fill="none" stroke="none"></path>
<circle cx="0" cy="0" r="4.563139535154356" fill="#9df871" opacity="0.9">
  <animateMotion begin="-4.2083041578163005s" dur="10s" repeatCount="indefinite">
    <mpath xlink:href="#path8"></mpath>
  </animateMotion>
</circle><path id="path9" d="M 824.8379657563212 378.018038842633
c 0 27.28073313537004 -6.675073001207561 7.835955262287139 -14.511028263494701 7.835955262287139
S 795.8159092293317 405.29877197800306 795.8159092293317 378.018038842633
s 6.675073001207561 -7.835955262287139 14.511028263494701 -7.835955262287139
S 824.8379657563212 350.737305707263 824.8379657563212 378.018038842633
z" fill="none" stroke="none"></path>
<circle cx="0" cy="0" r="5.668798435142369" fill="#9df871" opacity="0.9">
  <animateMotion begin="-9.794906274715679s" dur="10s" repeatCount="indefinite">
    <mpath xlink:href="#path9"></mpath>
  </animateMotion>
</circle><path id="path10" d="M 650.4203176819011 113.4823842255789
c 0 27.76366512462524 -6.793237211344473 7.974669769839165 -14.76790698118364 7.974669769839165
S 620.8845037195339 141.24604935020415 620.8845037195339 113.4823842255789
s 6.793237211344473 -7.974669769839165 14.76790698118364 -7.974669769839165
S 650.4203176819011 85.71871910095365 650.4203176819011 113.4823842255789
z" fill="none" stroke="none"></path>
<circle cx="0" cy="0" r="7.814988511974965" fill="#de9dd6" opacity="0.9">
  <animateMotion begin="-5.509134372112743s" dur="10s" repeatCount="indefinite">
    <mpath xlink:href="#path10"></mpath>
  </animateMotion>
</circle><path id="path11" d="M 1334.5692841546604 503.016233601601
c 0 29.144242616543767 -7.131038087026666 8.37121862390087 -15.502256710927536 8.37121862390087
S 1303.5647707328055 532.1604762181448 1303.5647707328055 503.016233601601
s 7.131038087026666 -8.37121862390087 15.502256710927536 -8.37121862390087
S 1334.5692841546604 473.87199098505727 1334.5692841546604 503.016233601601
z" fill="none" stroke="none"></path>
<circle cx="0" cy="0" r="7.218340879858032" fill="#51cacc" opacity="0.9">
  <animateMotion begin="-8.77152399408913s" dur="10s" repeatCount="indefinite">
    <mpath xlink:href="#path11"></mpath>
  </animateMotion>
</circle><path id="path12" d="M 550.2132597932653 451.06115282272174
c 0 28.2065998457447 -6.901614855873703 8.101895700373479 -15.003510556247182 8.101895700373479
S 520.2062386807709 479.2677526684664 520.2062386807709 451.06115282272174
s 6.901614855873703 -8.101895700373479 15.003510556247182 -8.101895700373479
S 550.2132597932653 422.85455297697706 550.2132597932653 451.06115282272174
z" fill="none" stroke="none"></path>
<circle cx="0" cy="0" r="6.345716956629352" fill="#de9dd6" opacity="0.9">
  <animateMotion begin="-6.032855923414475s" dur="10s" repeatCount="indefinite">
    <mpath xlink:href="#path12"></mpath>
  </animateMotion>
</circle><path id="path13" d="M 996.330589793263 156.22907917983036
c 0 36.180258273610434 -8.85261638609617 10.392201844547678 -19.244818230643848 10.392201844547678
S 957.8409533319752 192.4093374534408 957.8409533319752 156.22907917983036
s 8.85261638609617 -10.392201844547678 19.244818230643848 -10.392201844547678
S 996.330589793263 120.04882090621993 996.330589793263 156.22907917983036
z" fill="none" stroke="none"></path>
<circle cx="0" cy="0" r="6.189017192217473" fill="#9df871" opacity="0.9">
  <animateMotion begin="-1.3823505338574038s" dur="10s" repeatCount="indefinite">
    <mpath xlink:href="#path13"></mpath>
  </animateMotion>
</circle><path id="path14" d="M 623.973411116579 271.3702250595286
c 0 36.063700135857964 -8.82409684175248 10.358722379448565 -19.182819221201044 10.358722379448565
S 585.6077726741769 307.43392519538656 585.6077726741769 271.3702250595286
s 8.82409684175248 -10.358722379448565 19.182819221201044 -10.358722379448565
S 623.973411116579 235.30652492367062 623.973411116579 271.3702250595286
z" fill="none" stroke="none"></path>
<circle cx="0" cy="0" r="6.816608925866795" fill="#e0ff77" opacity="0.9">
  <animateMotion begin="-4.805772794997621s" dur="10s" repeatCount="indefinite">
    <mpath xlink:href="#path14"></mpath>
  </animateMotion>
</circle><path id="path15" d="M 837.9106449290281 188.2186977922095
c 0 22.234163487823288 -5.440274044892932 6.386408661396051 -11.826682706288983 6.386408661396051
S 814.25727951645 210.45286128003278 814.25727951645 188.2186977922095
s 5.440274044892932 -6.386408661396051 11.826682706288983 -6.386408661396051
S 837.9106449290281 165.98453430438622 837.9106449290281 188.2186977922095
z" fill="none" stroke="none"></path>
<circle cx="0" cy="0" r="4.076295099953042" fill="#e0ff77" opacity="0.9">
  <animateMotion begin="-1.4050578961125093s" dur="10s" repeatCount="indefinite">
    <mpath xlink:href="#path15"></mpath>
  </animateMotion>
</circle><path id="path16" d="M 1007.0230943269394 323.100810011834
c 0 27.498305630997596 -6.728308824605794 7.898449489754628 -14.626758314360423 7.898449489754628
S 977.7695776982184 350.59911564283163 977.7695776982184 323.100810011834
s 6.728308824605794 -7.898449489754628 14.626758314360423 -7.898449489754628
S 1007.0230943269394 295.6025043808364 1007.0230943269394 323.100810011834
z" fill="none" stroke="none"></path>
<circle cx="0" cy="0" r="4.3455799553396535" fill="#9df871" opacity="0.9">
  <animateMotion begin="-0.930419989985527s" dur="10s" repeatCount="indefinite">
    <mpath xlink:href="#path16"></mpath>
  </animateMotion>
</circle><path id="path17" d="M 1033.3849010739477 441.773242229607
c 0 32.63185284753401 -7.9843895265242795 9.372979009398069 -17.357368535922348 9.372979009398069
S 998.670164002103 474.40509507714097 998.670164002103 441.773242229607
s 7.9843895265242795 -9.372979009398069 17.357368535922348 -9.372979009398069
S 1033.3849010739477 409.141389382073 1033.3849010739477 441.773242229607
z" fill="none" stroke="none"></path>
<circle cx="0" cy="0" r="7.783364675287012" fill="#9df871" opacity="0.9">
  <animateMotion begin="-8.848205796228449s" dur="10s" repeatCount="indefinite">
    <mpath xlink:href="#path17"></mpath>
  </animateMotion>
</circle><path id="path18" d="M 940.7212725550414 557.9359684103069
c 0 30.776953595240897 -7.530531198835537 8.840188798633024 -16.370719997468562 8.840188798633024
S 907.9798325601043 588.7129220055479 907.9798325601043 557.9359684103069
s 7.530531198835537 -8.840188798633024 16.370719997468562 -8.840188798633024
S 940.7212725550414 527.159014815066 940.7212725550414 557.9359684103069
z" fill="none" stroke="none"></path>
<circle cx="0" cy="0" r="6.97519174727321" fill="#ff708e" opacity="0.9">
  <animateMotion begin="-0.620426448463387s" dur="10s" repeatCount="indefinite">
    <mpath xlink:href="#path18"></mpath>
  </animateMotion>
</circle><path id="path19" d="M 543.5476978959665 665.4329278029537
c 0 24.015681405266587 -5.87617736511842 6.8981212547042325 -12.774298619822652 6.8981212547042325
S 517.9991006563213 689.4486092082203 517.9991006563213 665.4329278029537
s 5.87617736511842 -6.8981212547042325 12.774298619822652 -6.8981212547042325
S 543.5476978959665 641.4172463976871 543.5476978959665 665.4329278029537
z" fill="none" stroke="none"></path>
<circle cx="0" cy="0" r="4.062379498167518" fill="#9df871" opacity="0.9">
  <animateMotion begin="-2.5341246553143737s" dur="10s" repeatCount="indefinite">
    <mpath xlink:href="#path19"></mpath>
  </animateMotion>
</circle><path id="path20" d="M 1161.1521941930264 439.2331235838772
c 0 27.092141645502327 -6.628928274963335 7.781785366261307 -14.410713641224643 7.781785366261307
S 1132.330766910577 466.32526522937957 1132.330766910577 439.2331235838772
s 6.628928274963335 -7.781785366261307 14.410713641224643 -7.781785366261307
S 1161.1521941930264 412.14098193837486 1161.1521941930264 439.2331235838772
z" fill="none" stroke="none"></path>
<circle cx="0" cy="0" r="7.173296853623888" fill="#9df871" opacity="0.9">
  <animateMotion begin="-9.295869584564008s" dur="10s" repeatCount="indefinite">
    <mpath xlink:href="#path20"></mpath>
  </animateMotion>
</circle><path id="path21" d="M 964.1745472954847 243.37132444374663
c 0 30.31468229662387 -7.417422264067542 8.707408744774941 -16.124831008842484 8.707408744774941
S 931.9248852777996 273.6860067403705 931.9248852777996 243.37132444374663
s 7.417422264067542 -8.707408744774941 16.124831008842484 -8.707408744774941
S 964.1745472954847 213.05664214712277 964.1745472954847 243.37132444374663
z" fill="none" stroke="none"></path>
<circle cx="0" cy="0" r="6.150512520842682" fill="#de9dd6" opacity="0.9">
  <animateMotion begin="-9.887187592530402s" dur="10s" repeatCount="indefinite">
    <mpath xlink:href="#path21"></mpath>
  </animateMotion>
</circle><path id="path22" d="M 53.13757195135972 616.4574746853978
c 0 23.037937849215453 -5.6369422397016535 6.617280020519333 -12.254222260220986 6.617280020519333
S 28.629127430917748 639.4954125346133 28.629127430917748 616.4574746853978
s 5.6369422397016535 -6.617280020519333 12.254222260220986 -6.617280020519333
S 53.13757195135972 593.4195368361823 53.13757195135972 616.4574746853978
z" fill="none" stroke="none"></path>
<circle cx="0" cy="0" r="5.026610909933167" fill="#9df871" opacity="0.9">
  <animateMotion begin="-8.394088990227111s" dur="10s" repeatCount="indefinite">
    <mpath xlink:href="#path22"></mpath>
  </animateMotion>
</circle><path id="path23" d="M 370.6720647903094 248.62235540207513
c 0 23.155691006367405 -5.665754182409045 6.651102735871489 -12.316856918280534 6.651102735871489
S 346.03835095374836 271.77804640844255 346.03835095374836 248.62235540207513
s 5.665754182409045 -6.651102735871489 12.316856918280534 -6.651102735871489
S 370.6720647903094 225.4666643957077 370.6720647903094 248.62235540207513
z" fill="none" stroke="none"></path>
<circle cx="0" cy="0" r="5.647014647347503" fill="#51cacc" opacity="0.9">
  <animateMotion begin="-3.88141689359472s" dur="10s" repeatCount="indefinite">
    <mpath xlink:href="#path23"></mpath>
  </animateMotion>
</circle><path id="path24" d="M 1163.960262691595 648.1477283971152
c 0 31.173874644208052 -7.627650178901969 8.954198036102314 -16.581848215004282 8.954198036102314
S 1130.7965662615863 679.3216030413232 1130.7965662615863 648.1477283971152
s 7.627650178901969 -8.954198036102314 16.581848215004282 -8.954198036102314
S 1163.960262691595 616.9738537529072 1163.960262691595 648.1477283971152
z" fill="none" stroke="none"></path>
<circle cx="0" cy="0" r="6.707256191787601" fill="#ff708e" opacity="0.9">
  <animateMotion begin="-0.5742539918847789s" dur="10s" repeatCount="indefinite">
    <mpath xlink:href="#path24"></mpath>
  </animateMotion>
</circle><path id="path25" d="M 307.6756027755409 364.29505538905516
c 0 34.66173010482848 -8.4810616213942 9.956028859897541 -18.437090481291744 9.956028859897541
S 270.80142181295736 398.9567854938837 270.80142181295736 364.29505538905516
s 8.4810616213942 -9.956028859897541 18.437090481291744 -9.956028859897541
S 307.6756027755409 329.63332528422666 307.6756027755409 364.29505538905516
z" fill="none" stroke="none"></path>
<circle cx="0" cy="0" r="7.615432076801489" fill="#ff708e" opacity="0.9">
  <animateMotion begin="-3.846194527480431s" dur="10s" repeatCount="indefinite">
    <mpath xlink:href="#path25"></mpath>
  </animateMotion>
</circle><path id="path26" d="M 666.3778033901043 123.5538673450892
c 0 26.90111821611433 -6.582188499687548 7.726916934415819 -14.309105434103365 7.726916934415819
S 637.7595925218976 150.45498556120353 637.7595925218976 123.5538673450892
s 6.582188499687548 -7.726916934415819 14.309105434103365 -7.726916934415819
S 666.3778033901043 96.65274912897488 666.3778033901043 123.5538673450892
z" fill="none" stroke="none"></path>
<circle cx="0" cy="0" r="7.335970788148826" fill="#51cacc" opacity="0.9">
  <animateMotion begin="-7.6861007015966765s" dur="10s" repeatCount="indefinite">
    <mpath xlink:href="#path26"></mpath>
  </animateMotion>
</circle><path id="path27" d="M 1209.9610816599638 418.1637925595035
c 0 19.56360158370382 -4.786838685374338 5.6193323697872675 -10.406171055161606 5.6193323697872675
S 1189.1487395496406 437.72739414320733 1189.1487395496406 418.1637925595035
s 4.786838685374338 -5.6193323697872675 10.406171055161606 -5.6193323697872675
S 1209.9610816599638 398.6001909757997 1209.9610816599638 418.1637925595035
z" fill="none" stroke="none"></path>
<circle cx="0" cy="0" r="6.992168832608445" fill="#e0ff77" opacity="0.9">
  <animateMotion begin="-4.455355449178344s" dur="10s" repeatCount="indefinite">
    <mpath xlink:href="#path27"></mpath>
  </animateMotion>
</circle><path id="path28" d="M 622.2890768134023 209.80031898574157
c 0 27.420128696235345 -6.709180425674606 7.875994412748451 -14.585174838423056 7.875994412748451
S 593.1187271365561 237.2204476819769 593.1187271365561 209.80031898574157
s 6.709180425674606 -7.875994412748451 14.585174838423056 -7.875994412748451
S 622.2890768134023 182.38019028950623 622.2890768134023 209.80031898574157
z" fill="none" stroke="none"></path>
<circle cx="0" cy="0" r="5.782955711777037" fill="#e0ff77" opacity="0.9">
  <animateMotion begin="-6.202250287898822s" dur="10s" repeatCount="indefinite">
    <mpath xlink:href="#path28"></mpath>
  </animateMotion>
</circle><path id="path29" d="M 713.9904161613349 11.151348570706181
c 0 28.578025110909426 -6.992495505860815 8.208581680793133 -15.201077186653949 8.208581680793133
S 683.588261788027 39.729373681615606 683.588261788027 11.151348570706181
s 6.992495505860815 -8.208581680793133 15.201077186653949 -8.208581680793133
S 713.9904161613349 -17.426676540203246 713.9904161613349 11.151348570706181
z" fill="none" stroke="none"></path>
<circle cx="0" cy="0" r="6.695931607063211" fill="#de9dd6" opacity="0.9">
  <animateMotion begin="-5.375940850042533s" dur="10s" repeatCount="indefinite">
    <mpath xlink:href="#path29"></mpath>
  </animateMotion>
</circle></g>
</svg>